<?xml version="1.0" encoding="iso-8859-1"?>
<!-- Uploaded to: SVG Repo, www.svgrepo.com, Generator: SVG Repo Mixer Tools -->
<svg height="800px" width="800px" version="1.1" id="Layer_1" xmlns="http://www.w3.org/2000/svg" xmlns:xlink="http://www.w3.org/1999/xlink" 
	 viewBox="0 0 512 512" xml:space="preserve">
<g transform="translate(1 1)">
	<g>
		<path style="fill:#FFE100;" d="M459.8,301.933c-5.12,0-8.533-3.413-8.533-8.533c0-5.12,3.413-8.533,8.533-8.533
			c14.507,0,25.6-11.093,25.6-25.6c0-5.12,3.413-8.533,8.533-8.533c5.12,0,8.533,3.413,8.533,8.533
			C502.467,283.16,483.693,301.933,459.8,301.933z"/>
		<path style="fill:#FFE100;" d="M502.467,259.267l-31.573-3.413c-28.16-3.413-52.053-21.333-63.147-46.933l-7.68-17.92h102.4
			V259.267z"/>
		<path style="fill:#FFE100;" d="M406.893,79.213c0.853,3.413,1.707,5.973,1.707,9.387c0,11.947-5.973,22.187-15.36,29.013
			L434.2,191h51.2L406.893,79.213z"/>
		<path style="fill:#FFE100;" d="M408.6,88.6c0,18.773-15.36,34.133-34.133,34.133c-18.773,0-34.133-15.36-34.133-34.133
			s15.36-34.133,34.133-34.133C393.24,54.467,408.6,69.827,408.6,88.6"/>
		<path style="fill:#FFE100;" d="M374.467,122.733c-17.92,0-32.427-13.653-34.133-30.72L237.08,234.52l11.093,50.347h15.36
			l115.2-162.133C377.027,122.733,376.173,122.733,374.467,122.733"/>
		<path style="fill:#FFE100;" d="M186.733,284.867h62.293L217.453,142.36c-2.56-11.093-12.8-19.627-24.747-19.627H101.4
			c-14.507,0-25.6,11.093-25.6,25.6V270.36c17.067-11.947,37.547-19.627,59.733-19.627
			C165.4,250.733,167.96,263.533,186.733,284.867"/>
	</g>
	<path style="fill:#FFFFFF;" d="M75.8,148.333c0-14.507,11.093-25.6,25.6-25.6H75.8c-14.507,0-25.6,11.093-25.6,25.6V270.36
		c7.68-5.973,16.213-10.24,25.6-13.653V148.333z"/>
	<path style="fill:#FECC00;" d="M212.333,353.133c0,56.32-40.107,102.4-89.6,102.4s-89.6-46.08-89.6-102.4s40.107-102.4,89.6-102.4
		S212.333,296.813,212.333,353.133"/>
	<path style="fill:#FFFFFF;" d="M33.133,353.133c0-54.613,36.693-98.133,83.627-102.4c-2.56,0-4.267,0-6.827,0
		c-56.32,0-102.4,46.08-102.4,102.4s46.08,102.4,102.4,102.4c2.56,0,4.267,0,6.827,0C69.827,451.267,33.133,407.747,33.133,353.133"
		/>
	<path style="fill:#FFE100;" d="M397.507,284.867H186.733c16.213,17.92,26.453,41.813,26.453,68.267
		c0,15.36-3.413,29.867-9.387,42.667h69.973c4.267-23.893,24.747-42.667,50.347-42.667c25.6,0,20.48,18.773,24.747,42.667h18.773
		c4.267,0,9.387-2.56,11.093-6.827l29.867-86.187C412.867,294.253,406.893,284.867,397.507,284.867"/>
	<path style="fill:#FECC00;" d="M348.867,404.333c0,28.16-17.067,51.2-38.4,51.2c-21.333,0-38.4-23.04-38.4-51.2
		c0-28.16,17.067-51.2,38.4-51.2C331.8,353.133,348.867,376.173,348.867,404.333"/>
	<g>
		<path style="fill:#FFA800;" d="M323.267,353.133c-2.56,0-5.12,0-7.68,0.853c18.773,3.413,33.28,24.747,33.28,50.347
			c0,25.6-14.507,46.933-33.28,50.347c2.56,0,5.12,0.853,7.68,0.853c28.16,0,51.2-23.04,51.2-51.2
			C374.467,376.173,351.427,353.133,323.267,353.133"/>
		<path style="fill:#FFA800;" d="M421.4,284.867h-24.747c9.387,0,15.36,9.387,11.093,17.92l-29.867,86.187
			c-0.853,2.56-3.413,4.267-5.12,5.12c0,0.853,0,0.853,0,1.707h18.773c4.267,0,9.387-2.56,11.093-6.827l29.867-86.187
			C436.76,294.253,430.787,284.867,421.4,284.867"/>
	</g>
	<path style="fill:#63D3FD;" d="M150.04,216.6H101.4c-5.12,0-8.533-3.413-8.533-8.533V165.4c0-5.12,3.413-8.533,8.533-8.533h35.84
		c3.413,0,6.827,2.56,8.533,5.973l11.947,42.667C159.427,211.48,155.16,216.6,150.04,216.6"/>
	<path style="fill:#3DB9F9;" d="M181.613,205.507l-11.947-42.667c-0.853-3.413-4.267-5.973-8.533-5.973h-25.6
		c3.413,0,6.827,2.56,8.533,5.973l11.947,42.667c1.707,5.12-2.56,11.093-8.533,11.093h25.6
		C179.053,216.6,183.32,211.48,181.613,205.507"/>
	<path d="M109.933,464.067C48.493,464.067-1,414.573-1,353.133S48.493,242.2,109.933,242.2s110.933,49.493,110.933,110.933
		S171.373,464.067,109.933,464.067z M109.933,259.267c-52.053,0-93.867,41.813-93.867,93.867S57.88,447,109.933,447
		s93.867-41.813,93.867-93.867S161.987,259.267,109.933,259.267z"/>
	<path d="M323.267,464.067c-33.28,0-59.733-26.453-59.733-59.733s26.453-59.733,59.733-59.733S383,371.053,383,404.333
		S356.547,464.067,323.267,464.067z M323.267,361.667c-23.893,0-42.667,18.773-42.667,42.667c0,23.893,18.773,42.667,42.667,42.667
		c23.893,0,42.667-18.773,42.667-42.667C365.933,380.44,347.16,361.667,323.267,361.667z"/>
	<path d="M340.333,404.333c0,9.387-7.68,17.067-17.067,17.067s-17.067-7.68-17.067-17.067s7.68-17.067,17.067-17.067
		S340.333,394.947,340.333,404.333"/>
	<path d="M127,353.133c0,9.387-7.68,17.067-17.067,17.067s-17.067-7.68-17.067-17.067s7.68-17.067,17.067-17.067
		S127,343.747,127,353.133"/>
	<path d="M259.267,293.4h-76.8l-2.56-2.56c-17.92-20.48-43.52-31.573-69.973-31.573c-19.627,0-38.4,5.973-54.613,17.92
		l-13.653,9.387v-138.24c0-18.773,15.36-34.133,34.133-34.133h116.053c16.213,0,29.867,11.093,33.28,26.453L259.267,293.4z
		 M190.147,276.333h47.787L208.067,144.92c-1.707-7.68-8.533-13.653-17.067-13.653H75.8c-9.387,0-17.067,7.68-17.067,17.067V255
		c15.36-8.533,33.28-12.8,51.2-12.8C139.8,242.2,168.813,255,190.147,276.333z"/>
	<path d="M391.533,404.333h-25.6l-0.853-6.827c-3.413-20.48-21.333-35.84-41.813-35.84s-38.4,15.36-41.813,35.84l-2.56,6.827h-89.6
		l5.973-11.947c5.973-12.8,8.533-25.6,8.533-39.253c0-23.04-8.533-45.227-23.893-62.293l-12.8-14.507h255.147
		c7.68,0,13.653,3.413,17.92,10.24c3.413,5.973,4.267,13.653,0.853,19.627l-30.72,87.04
		C406.893,400.067,399.213,404.333,391.533,404.333z M379.587,387.267h11.947c1.707,0,2.56-0.853,3.413-1.707l30.72-86.187
		c0.853-1.707,0-3.413,0-3.413c0-0.853-1.707-1.707-3.413-1.707H202.947c11.093,17.92,17.92,38.4,17.92,59.733
		c0,11.947-1.707,23.04-5.12,34.133h49.493c7.68-24.747,30.72-42.667,57.173-42.667C348.867,344.6,371.907,362.52,379.587,387.267z"
		/>
	<path d="M109.933,301.933c-5.12,0-8.533-3.413-8.533-8.533v-42.667c0-5.12,3.413-8.533,8.533-8.533s8.533,3.413,8.533,8.533V293.4
		C118.467,298.52,115.053,301.933,109.933,301.933z"/>
	<path d="M109.933,464.067c-5.12,0-8.533-3.413-8.533-8.533v-42.667c0-5.12,3.413-8.533,8.533-8.533s8.533,3.413,8.533,8.533v42.667
		C118.467,460.653,115.053,464.067,109.933,464.067z"/>
	<path d="M212.333,361.667h-42.667c-5.12,0-8.533-3.413-8.533-8.533c0-5.12,3.413-8.533,8.533-8.533h42.667
		c5.12,0,8.533,3.413,8.533,8.533C220.867,358.253,217.453,361.667,212.333,361.667z"/>
	<path d="M50.2,361.667H7.533c-5.12,0-8.533-3.413-8.533-8.533c0-5.12,3.413-8.533,8.533-8.533H50.2c5.12,0,8.533,3.413,8.533,8.533
		C58.733,358.253,55.32,361.667,50.2,361.667z"/>
	<path d="M68.12,319.853c-2.56,0-4.267-0.853-5.973-2.56L32.28,287.427c-3.413-3.413-3.413-8.533,0-11.947s8.533-3.413,11.947,0
		l29.867,29.867c3.413,3.413,3.413,8.533,0,11.947C72.387,319,69.827,319.853,68.12,319.853z"/>
	<path d="M182.467,434.2c-2.56,0-4.267-0.853-5.973-2.56l-29.867-29.867c-3.413-3.413-3.413-8.533,0-11.947
		c3.413-3.413,8.533-3.413,11.947,0l29.867,29.867c3.413,3.413,3.413,8.533,0,11.947C186.733,433.347,184.173,434.2,182.467,434.2z"
		/>
	<path d="M151.747,319.853c-2.56,0-4.267-0.853-5.973-2.56c-3.413-3.413-3.413-8.533,0-11.947l29.867-29.867
		c3.413-3.413,8.533-3.413,11.947,0s3.413,8.533,0,11.947l-29.867,29.867C156.867,319,154.307,319.853,151.747,319.853z"/>
	<path d="M37.4,434.2c-2.56,0-4.267-0.853-5.973-2.56c-3.413-3.413-3.413-8.533,0-11.947l29.867-29.867
		c3.413-3.413,8.533-3.413,11.947,0c3.413,3.413,3.413,8.533,0,11.947L43.373,431.64C41.667,433.347,39.96,434.2,37.4,434.2z"/>
	<path d="M175.64,225.133H101.4c-9.387,0-17.067-7.68-17.067-17.067V165.4c0-9.387,7.68-17.067,17.067-17.067h61.44
		c7.68,0,14.507,5.12,16.213,11.947L191,202.947c1.707,5.12,0.853,10.24-2.56,15.36C185.88,222.573,180.76,225.133,175.64,225.133z
		 M162.84,165.4H101.4v42.667h74.24L162.84,165.4z"/>
	<path d="M246.467,327.533h-34.133c-5.12,0-8.533-3.413-8.533-8.533c0-5.12,3.413-8.533,8.533-8.533h34.133
		c5.12,0,8.533,3.413,8.533,8.533C255,324.12,251.587,327.533,246.467,327.533z"/>
	<path d="M263.533,361.667h-51.2c-5.12,0-8.533-3.413-8.533-8.533c0-5.12,3.413-8.533,8.533-8.533h51.2
		c5.12,0,8.533,3.413,8.533,8.533C272.067,358.253,268.653,361.667,263.533,361.667z"/>
	<path d="M374.467,131.267c-23.893,0-42.667-18.773-42.667-42.667s18.773-42.667,42.667-42.667
		c23.893,0,42.667,18.773,42.667,42.667S398.36,131.267,374.467,131.267z M374.467,63c-14.507,0-25.6,11.093-25.6,25.6
		s11.093,25.6,25.6,25.6c14.507,0,25.6-11.093,25.6-25.6S388.973,63,374.467,63z"/>
	<path d="M263.533,293.4h-14.507c-4.267,0-7.68-2.56-8.533-6.827L229.4,236.227c-0.853-2.56,0-5.12,1.707-6.827l102.4-142.507
		c1.707-2.56,5.973-4.267,9.387-3.413c3.413,0.853,5.973,4.267,5.973,7.68c1.707,12.8,12.8,23.04,25.6,23.04
		c0.853,0,0.853,0,1.707,0h1.707c3.413,0,6.827,0.853,8.533,4.267c1.707,2.56,1.707,6.827,0,9.387l-115.2,162.133
		C268.653,291.693,266.093,293.4,263.533,293.4z M255.853,276.333h3.413L362.52,129.56c-10.24-3.413-19.627-10.24-24.747-19.627
		l-91.307,126.293L255.853,276.333z"/>
	<path d="M502.467,267.8h-0.853l-31.573-3.413c-30.72-3.413-58.027-23.893-70.827-52.053l-7.68-17.92
		c-0.853-2.56-0.853-5.973,0.853-7.68c1.707-2.56,4.267-3.413,6.827-3.413h102.4c5.12,0,8.533,3.413,8.533,8.533v68.267
		c0,2.56-0.853,5.12-2.56,5.973C506.733,266.947,504.173,267.8,502.467,267.8z M412.867,199.533l2.56,5.973
		c10.24,23.04,31.573,39.253,56.32,41.813l22.187,2.56v-50.347H412.867z"/>
	<path d="M468.333,301.933c-5.12,0-8.533-3.413-8.533-8.533c0-5.12,3.413-8.533,8.533-8.533c14.507,0,25.6-11.093,25.6-25.6
		c0-5.12,3.413-8.533,8.533-8.533c5.12,0,8.533,3.413,8.533,8.533C511,283.16,492.227,301.933,468.333,301.933z"/>
	<path d="M485.4,199.533h-51.2c-3.413,0-5.973-1.707-7.68-4.267l-40.96-73.387c-2.56-4.267-0.853-8.533,2.56-11.093
		c7.68-5.12,11.947-13.653,11.947-22.187c0-1.707,0-4.267-0.853-6.827c-0.853-4.267,0.853-8.533,4.267-10.24
		c3.413-1.707,8.533-0.853,10.24,2.56l78.507,111.787c1.707,2.56,1.707,5.973,0.853,8.533
		C491.373,197.827,488.813,199.533,485.4,199.533z M439.32,182.467h29.867l-54.613-78.507c-2.56,5.973-5.973,11.093-10.24,15.36
		L439.32,182.467z"/>
</g>
</svg>