<?xml version="1.0" encoding="iso-8859-1"?>
<!-- Uploaded to: SVG Repo, www.svgrepo.com, Generator: SVG Repo Mixer Tools -->
<!DOCTYPE svg PUBLIC "-//W3C//DTD SVG 1.1//EN" "http://www.w3.org/Graphics/SVG/1.1/DTD/svg11.dtd">
<svg fill="#000000" height="800px" width="800px" version="1.1" id="Capa_1" xmlns="http://www.w3.org/2000/svg" xmlns:xlink="http://www.w3.org/1999/xlink" 
	 viewBox="0 0 511.002 511.002" xml:space="preserve">
<g>
	<path d="M71.52,360.001h-0.01c-4.142,0-7.495,3.358-7.495,7.5s3.363,7.5,7.505,7.5s7.5-3.358,7.5-7.5S75.662,360.001,71.52,360.001
		z"/>
	<path d="M223.52,360.001h-0.01c-4.142,0-7.495,3.358-7.495,7.5s3.363,7.5,7.505,7.5s7.5-3.358,7.5-7.5
		S227.662,360.001,223.52,360.001z"/>
	<path d="M510.776,389.682l-4.97-19.881c-2.62-10.48-11.995-17.8-22.798-17.8H471v-18.945c4.765-2.647,8-7.728,8-13.555v-53.869
		c0-5.807-2.137-11.385-6.018-15.704l-68.455-76.208c-0.209-0.255-0.437-0.486-0.655-0.73l-0.624-0.694
		c-0.038-0.043-0.081-0.079-0.12-0.121c-0.082-0.083-0.164-0.167-0.247-0.249c-0.138-0.134-0.279-0.26-0.425-0.381
		c-7.3-6.773-18.578-8.026-27.26-2.366L205.27,280.001h-7.504c-3.138-9.29-11.93-16-22.266-16H135v-8.5
		c0-8.802-4.867-16.484-12.048-20.51l16.794-27.99H223.5c4.142,0,7.5-3.358,7.5-7.5s-3.358-7.5-7.5-7.5H223v-15.539
		c0-2.261-0.116-4.517-0.329-6.762c0.213-0.696,0.329-1.434,0.329-2.199c0-1.502-0.446-2.897-1.206-4.07
		c-0.412-2.224-0.922-4.432-1.545-6.613l-13.537-47.377c-0.92-3.22-3.863-5.439-7.211-5.439h-56c-8.547,0-15.5,6.953-15.5,15.5
		v77.923l-21.01,35.016c-5.188,1.013-9.768,3.738-13.132,7.561H71.5c-12.958,0-23.5,10.542-23.5,23.5v0.5h-0.5
		c-12.958,0-23.5,10.542-23.5,23.5v40.5h-8.5c-8.547,0-15.5,6.953-15.5,15.5v8c0,12.958,10.542,23.5,23.5,23.5h9.223
		c3.515,18.205,19.561,32,38.777,32s35.262-13.795,38.777-32h74.447c3.515,18.205,19.561,32,38.777,32s35.262-13.795,38.777-32
		h9.223c12.958,0,23.5-10.542,23.5-23.5v-8c0-8.547-6.953-15.5-15.5-15.5h-27.365l-6.008-12.017l134.039-95.743l54.248,58.019
		l12.248,45.286c1.31,4.844,4.858,8.627,9.339,10.38v18.074h-12.008c-10.803,0-20.178,7.32-22.798,17.801l-4.97,19.88
		c-1.005,4.018,1.438,8.09,5.457,9.095c4.015,1.008,8.091-1.438,9.095-5.457l4.97-19.88c0.948-3.791,4.339-6.439,8.246-6.439H456
		v24.5c0,4.142,3.358,7.5,7.5,7.5s7.5-3.358,7.5-7.5v-24.5h12.008c3.907,0,7.298,2.648,8.246,6.438l4.97,19.88
		c0.852,3.408,3.91,5.683,7.27,5.683c0.602,0,1.214-0.073,1.825-0.226C509.337,397.772,511.781,393.7,510.776,389.682z
		 M184.723,360.001h-74.447c-1.223-6.334-3.964-12.13-7.827-17h90.101C188.687,347.871,185.946,353.667,184.723,360.001z
		 M103,264.001v-8.5c0-4.683,3.806-8.493,8.488-8.499c0.002,0,0.003,0,0.005,0c0.004,0,0.008-0.001,0.012-0.001
		c4.685,0.002,8.496,3.814,8.496,8.5v8.5H103z M205.558,160.001H175.5c-4.687,0-8.5-3.813-8.5-8.5v-32.5h26.843L205.558,160.001z
		 M143.5,119.001h8.5v32.5c0,12.958,10.542,23.5,23.5,23.5h32.475c0.012,0.487,0.025,0.974,0.025,1.461v15.539h-65v-72.5
		C143,119.225,143.224,119.001,143.5,119.001z M63,263.501c0-4.687,3.813-8.5,8.5-8.5h16.513c-0.004,0.167-0.013,0.332-0.013,0.5
		v8.5H63V263.501z M39,303.001h128.5c4.142,0,7.5-3.358,7.5-7.5s-3.358-7.5-7.5-7.5H39v-0.5c0-4.687,3.813-8.5,8.5-8.5h128
		c4.687,0,8.5,3.813,8.5,8.5v40.5H39V303.001z M15,351.501v-8c0-0.276,0.224-0.5,0.5-0.5h25.051c-3.864,4.87-6.605,10.666-7.827,17
		H23.5C18.813,360.001,15,356.188,15,351.501z M71.5,392.001c-13.509,0-24.5-10.991-24.5-24.5s10.991-24.5,24.5-24.5
		s24.5,10.991,24.5,24.5S85.009,392.001,71.5,392.001z M223.5,392.001c-13.509,0-24.5-10.991-24.5-24.5s10.991-24.5,24.5-24.5
		s24.5,10.991,24.5,24.5S237.009,392.001,223.5,392.001z M280,343.501v8c0,4.687-3.813,8.5-8.5,8.5h-9.223
		c-1.223-6.334-3.964-12.13-7.827-17H279.5C279.776,343.001,280,343.225,280,343.501z M199,328.001v-33h14.611
		c3.24,0,6.154,1.801,7.603,4.699l14.151,28.301H199z M234.63,292.991c-1.873-3.746-4.639-6.817-7.96-9.038l156.721-102.209
		c2.854-1.861,6.574-1.424,8.95,0.857l0.687,0.765c0.111,0.142,0.222,0.284,0.324,0.437c2.175,3.261,1.379,7.601-1.811,9.879
		L239.335,302.401L234.63,292.991z M448.406,272.543c-0.32-1.183-0.925-2.269-1.761-3.164l-54.167-57.932l7.783-5.559
		c2.771-1.979,4.932-4.475,6.489-7.248l55.074,61.312c1.403,1.562,2.176,3.579,2.176,5.68v53.869c0,0.276-0.224,0.5-0.5,0.5h-1.876
		c-0.226,0-0.424-0.152-0.483-0.37L448.406,272.543z"/>
</g>
</svg>