<?xml version="1.0" encoding="iso-8859-1"?>
<!-- Uploaded to: SVG Repo, www.svgrepo.com, Generator: SVG Repo Mixer Tools -->
<svg fill="#000000" height="800px" width="800px" version="1.1" id="Layer_1" xmlns="http://www.w3.org/2000/svg" xmlns:xlink="http://www.w3.org/1999/xlink" 
	 viewBox="0 0 512 512" xml:space="preserve">
<g transform="translate(1 1)">
	<g>
		<g>
			<path d="M323.267,387.267c-9.387,0-17.067,7.68-17.067,17.067s7.68,17.067,17.067,17.067s17.067-7.68,17.067-17.067
				S332.653,387.267,323.267,387.267z"/>
			<path d="M109.933,336.067c-9.387,0-17.067,7.68-17.067,17.067s7.68,17.067,17.067,17.067S127,362.52,127,353.133
				S119.32,336.067,109.933,336.067z"/>
			<path d="M101.4,225.133h74.24c5.12,0,10.24-2.56,12.8-6.827c3.413-5.12,4.267-10.24,2.56-15.36l-11.947-42.667
				c-1.707-6.827-8.533-11.947-16.213-11.947H101.4c-9.387,0-17.067,7.68-17.067,17.067v42.667
				C84.333,217.453,92.013,225.133,101.4,225.133z M101.4,165.4h61.44l12.8,42.667H101.4V165.4z"/>
			<path d="M510.147,255.232v-63.379c0-5.12-3.413-8.533-8.533-8.533h-11.184L415.461,76.573
				c-5.086-17.872-21.294-30.639-40.995-30.639c-23.893,0-42.667,18.773-42.667,42.667c0,0.217,0.013,0.43,0.016,0.646
				l-90.138,125.442l-16.544-74.036c-3.413-15.36-17.067-26.453-33.28-26.453H75.8c-18.773,0-34.133,15.36-34.133,34.133v117.248
				C15.67,285.851-1,317.479-1,353.133c0,61.44,49.493,110.933,110.933,110.933c42.949,0,80.055-24.188,98.503-59.733h55.097
				c0,33.28,26.453,59.733,59.733,59.733c33.28,0,59.733-26.453,59.733-59.733h8.533c7.68,0,15.36-4.267,18.773-11.093l30.72-87.04
				c3.413-5.973,2.56-13.653-0.853-19.627c-4.267-6.827-10.24-10.24-17.92-10.24H280.914l103.954-146.306
				c1.531-0.372,3.03-0.818,4.487-1.347l30.496,54.639h-20.639c-2.56,0-5.12,0.853-6.827,3.413c-1.707,1.707-1.707,5.12-0.853,7.68
				l7.68,17.92c12.8,28.16,40.107,48.64,70.827,52.053l22.818,2.467c-3.111,10.614-12.678,18.013-24.525,18.013
				c-5.12,0-8.533,3.413-8.533,8.533c0,5.12,3.413,8.533,8.533,8.533c23.893,0,42.667-18.773,42.667-42.667
				C511,257.757,510.696,256.401,510.147,255.232z M374.467,63c14.507,0,25.6,11.093,25.6,25.6c0,0.529-0.017,1.059-0.049,1.588
				c-0.001,0.011-0.002,0.023-0.002,0.034c-0.335,5.315-2.31,10.546-5.717,14.864c-4.634,5.624-11.695,9.115-19.831,9.115
				c-11.919,0-22.353-8.88-25.112-20.437c-0.319-1.661-0.488-3.386-0.488-5.163C348.867,74.093,359.96,63,374.467,63z
				 M195.267,392.387l-3.127,6.255c-2.887,5.228-6.257,10.148-10.052,14.699l-23.514-23.514c-3.413-3.413-8.533-3.413-11.947,0
				s-3.413,8.533,0,11.947l23.514,23.514c-14.23,11.868-32.058,19.58-51.674,21.328v-33.748c0-5.12-3.413-8.533-8.533-8.533
				s-8.533,3.413-8.533,8.533v33.748c-19.615-1.747-37.444-9.459-51.674-21.328l23.514-23.514c3.413-3.413,3.413-8.533,0-11.947
				s-8.533-3.413-11.947,0L37.78,413.34c-11.868-14.23-19.58-32.058-21.328-51.674H50.2c5.12,0,8.533-3.413,8.533-8.533
				c0-5.12-3.413-8.533-8.533-8.533H16.452c1.747-19.615,9.459-37.444,21.328-51.674l24.367,24.367
				c1.707,1.707,3.413,2.56,5.973,2.56c1.707,0,4.267-0.853,5.973-2.56c3.413-3.413,3.413-8.533,0-11.947l-24.336-24.336
				l5.562-3.824c13.167-9.702,28.024-15.465,43.654-17.287c0.016-0.002,0.032-0.004,0.049-0.006c0.79-0.092,1.584-0.158,2.377-0.23
				V293.4c0,5.12,3.413,8.533,8.533,8.533s8.533-3.413,8.533-8.533v-33.739c18.853,1.711,36.879,9.075,51.536,21.456l-24.23,24.23
				c-3.413,3.413-3.413,8.533,0,11.947c1.707,1.707,3.413,2.56,5.973,2.56c2.56,0,5.12-0.853,5.973-2.56l24.158-24.158
				c12.274,14.565,19.789,32.53,21.529,51.465h-33.741c-5.12,0-8.533,3.413-8.533,8.533c0,5.12,3.413,8.533,8.533,8.533h33.748
				c-0.843,9.459-3.072,18.501-6.487,26.926C196.404,389.858,195.857,391.122,195.267,392.387z M58.733,148.333
				c0-9.387,7.68-17.067,17.067-17.067H191c8.533,0,15.36,5.973,17.067,13.653l29.867,131.413h-47.787
				c-0.286-0.286-0.578-0.564-0.867-0.847c-20.116-20.556-48.192-33.287-79.346-33.287c-1.057,0-2.109,0.018-3.159,0.047
				c-0.287,0.008-0.573,0.022-0.86,0.032c-0.786,0.028-1.57,0.061-2.352,0.105c-0.295,0.017-0.589,0.037-0.884,0.056
				c-0.808,0.052-1.613,0.112-2.415,0.18c-0.239,0.021-0.478,0.041-0.716,0.063c-0.948,0.087-1.892,0.186-2.833,0.297
				c-0.084,0.01-0.169,0.019-0.254,0.029c-13.479,1.62-26.2,5.638-37.727,11.621V148.333z M323.267,447
				c-23.893,0-42.667-18.773-42.667-42.667c0-1.861,0.127-3.687,0.348-5.48l0.505-1.346c3.304-19.823,20.2-34.849,39.852-35.792
				c0.65-0.028,1.303-0.048,1.961-0.048s1.311,0.02,1.961,0.048c19.653,0.943,36.549,15.968,39.852,35.792l0.853,6.827
				C365.933,428.227,347.16,447,323.267,447z M425.667,295.96c0,0,0.853,1.707,0,3.413l-30.72,86.187
				c-0.853,0.853-1.707,1.707-3.413,1.707h-10.969c-7.249-24.816-29.964-42.667-57.298-42.667c-22.53,0-41.918,12.132-52.101,30.29
				c-2.47,4.116-4.473,8.55-5.926,13.23h-49.493c2.671-8.679,4.281-17.365,4.862-26.453h42.924c5.12,0,8.533-3.413,8.533-8.533
				c0-5.12-3.413-8.533-8.533-8.533h-42.987c-0.44-5.829-1.331-11.528-2.631-17.067h28.552c5.12,0,8.533-3.413,8.533-8.533
				s-3.413-8.533-8.533-8.533h-34.054c-2.348-5.659-5.152-11.078-8.363-16.213h218.204
				C423.96,294.253,425.667,295.107,425.667,295.96z M255.853,276.333l-8.859-37.853l-0.509-2.279l91.061-125.954
				c5.409,9.341,14.263,16.334,24.94,19.36l-103.22,146.726H255.853z M404.538,119.104c3.03-2.987,5.605-6.432,7.621-10.237
				c0.872-1.569,1.682-3.199,2.414-4.907l54.613,78.507H439.32l-34.987-63.147C404.403,119.25,404.469,119.175,404.538,119.104z
				 M415.427,205.507l-2.56-5.973H434.2h51.2h8.533v50.347l-22.187-2.56C447,244.76,425.667,228.547,415.427,205.507z"/>
		</g>
	</g>
</g>
</svg>