<?xml version="1.0" encoding="iso-8859-1"?>
<!-- Uploaded to: SVG Repo, www.svgrepo.com, Generator: SVG Repo Mixer Tools -->
<svg fill="#000000" height="800px" width="800px" version="1.1" id="Layer_1" xmlns="http://www.w3.org/2000/svg" xmlns:xlink="http://www.w3.org/1999/xlink" 
	 viewBox="0 0 488 488" xml:space="preserve">
<g transform="translate(0 -540.36)">
	<g>
		<g>
			<path d="M122,917.182c-27.8,0-50.5,22.8-50.5,50.9c0,27.6,22.7,50.1,50.5,50.1c27.9,0,50.5-22.5,50.5-50.1
				C172.5,939.982,149.8,917.182,122,917.182z M122,998.182c-16.5,0-30.5-13.8-30.5-30.1c0-17,13.7-30.9,30.5-30.9
				c16.9,0,30.5,13.9,30.5,30.9C152.5,984.382,138.5,998.182,122,998.182z"/>
			<path d="M366,917.182c-27.8,0-50.5,22.8-50.5,50.9c0,27.6,22.7,50.1,50.5,50.1s50.5-22.5,50.5-50.1
				C416.5,939.982,393.8,917.182,366,917.182z M366,998.182c-16.5,0-30.5-13.8-30.5-30.1c0-17,13.7-30.9,30.5-30.9
				s30.5,13.9,30.5,30.9C396.5,984.382,382.5,998.182,366,998.182z"/>
			<path d="M284.4,967.982h-80.8c-5.5,0-10,4.5-10,10s4.5,10,10,10h80.8c5.5,0,10-4.5,10-10S289.9,967.982,284.4,967.982z"/>
			<path d="M478,845.582H308l-46.1-30.9l48.6-32.6c2.8-1.9,4.4-5,4.4-8.3s-1.7-6.5-4.5-8.3l-48.5-32.2l48.5-32.2
				c2.8-1.8,4.5-5,4.5-8.3s-1.7-6.5-4.4-8.3l-48.6-32.6l46.1-30.9h118.9c4.1,0,7.7-2.5,9.3-6.2l20.6-50.5c2.1-5.1-0.4-11-5.5-13
				c-5.1-2.1-11,0.4-13,5.5l-18,44.3H305c0,0,0,0-0.1,0H183H67.8l-18-44.3c-2.1-5.1-7.9-7.6-13-5.5c-5.1,2.1-7.6,7.9-5.5,13
				l20.6,50.5c1.5,3.8,5.2,6.2,9.3,6.2H180l46.1,30.9l-48.6,32.6c-2.8,1.9-4.4,5-4.4,8.3s1.7,6.5,4.5,8.3l48.5,32.2l-48.5,32.2
				c-2.8,1.8-4.5,5-4.5,8.3s1.7,6.5,4.4,8.3l48.6,32.6l-46.1,30.9H10c-5.5,0-10,4.5-10,10v122.5c0,5.5,4.5,10,10,10h30.5
				c5.5,0,10-4.5,10-10s-4.5-10-10-10H20v-102.5h163h122h163v102.5h-20.5c-5.5,0-10,4.5-10,10s4.5,10,10,10H478c5.5,0,10-4.5,10-10
				v-122.5C488,850.082,483.5,845.582,478,845.582z M215.9,620.682L215.9,620.682h56.3l-28.1,18.9L215.9,620.682z M201,692.482
				l43-28.9l43,28.9l-43,28.6L201,692.482z M201,773.682l43-28.6l43,28.6l-43,28.9L201,773.682z M215.8,845.582l28.2-18.9l28.1,18.9
				H215.8z"/>
		</g>
	</g>
</g>
</svg>