<?xml version="1.0" encoding="iso-8859-1"?>
<!-- Uploaded to: SVG Repo, www.svgrepo.com, Generator: SVG Repo Mixer Tools -->
<svg fill="#000000" height="800px" width="800px" version="1.1" id="Layer_1" xmlns="http://www.w3.org/2000/svg" xmlns:xlink="http://www.w3.org/1999/xlink" 
	 viewBox="0 0 512 512" xml:space="preserve">
<g transform="translate(1 1)">
	<g>
		<g>
			<path d="M179.053,173.08c-1.707-6.827-8.533-11.947-16.213-11.947H101.4c-9.387,0-17.067,7.68-17.067,17.067v42.667
				c0,9.387,7.68,17.067,17.067,17.067h74.24c5.12,0,10.24-2.56,12.8-6.827c3.413-5.12,4.267-10.24,2.56-15.36L179.053,173.08z
				 M101.4,220.867V178.2h61.44l12.8,42.667H101.4z"/>
			<path d="M510.147,250.965v-63.379c0-5.12-3.413-8.533-8.533-8.533h-11.184L415.461,72.306
				c-5.086-17.872-21.294-30.639-40.995-30.639c-23.893,0-42.667,18.773-42.667,42.667c0,0.217,0.013,0.43,0.016,0.646
				l-90.138,125.442l-16.544-74.036c-3.413-15.36-17.067-26.453-33.28-26.453h-22.187V92.867c0-18.773-15.36-34.133-34.133-34.133
				c-18.773,0-34.133,15.36-34.133,34.133v17.067H75.8c-18.773,0-34.133,15.36-34.133,34.133v128v17.067V383
				C17.773,383-1,401.773-1,425.667s18.773,42.667,42.667,42.667h324.267c23.893,0,42.667-18.773,42.667-42.667
				S389.827,383,365.933,383h-11.545L383,301.933c3.413-5.973,2.56-13.653-0.853-19.627c-4.267-6.827-10.24-10.24-17.92-10.24
				h-83.312l103.954-146.306c1.531-0.372,3.03-0.818,4.487-1.347l30.496,54.639h-20.639c-2.56,0-5.12,0.853-6.827,3.413
				c-1.707,1.707-1.707,5.12-0.853,7.68l7.68,17.92c12.8,28.16,40.107,48.64,70.827,52.053l22.818,2.467
				C489.747,273.2,480.18,280.6,468.333,280.6c-5.12,0-8.533,3.413-8.533,8.533c0,5.12,3.413,8.533,8.533,8.533
				C492.227,297.667,511,278.893,511,255C511,253.49,510.696,252.135,510.147,250.965z M374.467,58.733
				c14.507,0,25.6,11.093,25.6,25.6c0,0.529-0.017,1.059-0.049,1.588c-0.001,0.011-0.002,0.023-0.002,0.034
				c-0.335,5.315-2.31,10.546-5.717,14.864c-4.634,5.624-11.695,9.115-19.831,9.115c-11.919,0-22.353-8.88-25.112-20.437
				c-0.319-1.661-0.488-3.386-0.488-5.163C348.867,69.827,359.96,58.733,374.467,58.733z M118.467,92.867
				c0-9.387,7.68-17.067,17.067-17.067S152.6,83.48,152.6,92.867v17.067h-34.133V92.867z M58.733,144.067
				c0-9.387,7.68-17.067,17.067-17.067h25.6h68.267H191c8.533,0,15.36,5.973,17.067,13.653l29.867,131.413h-179.2V144.067z
				 M331.597,451.267H76.003c5.25-7.09,8.33-15.924,8.33-25.6s-3.08-18.51-8.33-25.6h255.594c-5.25,7.09-8.33,15.924-8.33,25.6
				S326.347,444.177,331.597,451.267z M16.067,425.667c0-14.507,11.093-25.6,25.6-25.6c14.507,0,25.6,11.093,25.6,25.6
				c0,14.507-11.093,25.6-25.6,25.6C27.16,451.267,16.067,440.173,16.067,425.667z M391.533,425.667c0,14.507-11.093,25.6-25.6,25.6
				s-25.6-11.093-25.6-25.6c0-14.507,11.093-25.6,25.6-25.6S391.533,411.16,391.533,425.667z M367.64,291.693
				c0,0,0.853,1.707,0,3.413l-30.72,86.187c-0.853,0.853-1.707,1.707-3.413,1.707H58.733v-25.6h187.733
				c5.12,0,8.533-3.413,8.533-8.533c0-5.12-3.413-8.533-8.533-8.533H58.733v-17.067h136.533c5.12,0,8.533-3.413,8.533-8.533
				s-3.413-8.533-8.533-8.533H58.733v-16.213h305.493C365.933,289.987,367.64,290.84,367.64,291.693z M255.853,272.067
				l-8.859-37.853l-0.509-2.279l91.061-125.954c5.409,9.341,14.263,16.334,24.94,19.36l-103.22,146.726H255.853z M404.538,114.838
				c3.03-2.987,5.605-6.432,7.621-10.237c0.872-1.569,1.682-3.199,2.414-4.907l54.613,78.507H439.32l-34.987-63.147
				C404.403,114.983,404.469,114.908,404.538,114.838z M415.427,201.24l-2.56-5.973H434.2h51.2h8.533v50.347l-22.187-2.56
				C447,240.493,425.667,224.28,415.427,201.24z"/>
			<path d="M118.467,417.133c-5.12,0-8.533,3.413-8.533,8.533s3.413,8.533,8.533,8.533s8.533-3.413,8.533-8.533
				S123.587,417.133,118.467,417.133z"/>
			<path d="M161.133,417.133c-5.12,0-8.533,3.413-8.533,8.533s3.413,8.533,8.533,8.533s8.533-3.413,8.533-8.533
				S166.253,417.133,161.133,417.133z"/>
			<path d="M203.8,417.133c-5.12,0-8.533,3.413-8.533,8.533s3.413,8.533,8.533,8.533c5.12,0,8.533-3.413,8.533-8.533
				S208.92,417.133,203.8,417.133z"/>
			<path d="M246.467,417.133c-5.12,0-8.533,3.413-8.533,8.533s3.413,8.533,8.533,8.533s8.533-3.413,8.533-8.533
				S251.587,417.133,246.467,417.133z"/>
			<path d="M289.133,417.133c-5.12,0-8.533,3.413-8.533,8.533s3.413,8.533,8.533,8.533s8.533-3.413,8.533-8.533
				S294.253,417.133,289.133,417.133z"/>
		</g>
	</g>
</g>
</svg>