<?xml version="1.0" encoding="iso-8859-1"?>
<!-- Uploaded to: SVG Repo, www.svgrepo.com, Generator: SVG Repo Mixer Tools -->
<svg fill="#000000" height="800px" width="800px" version="1.1" id="Layer_1" xmlns="http://www.w3.org/2000/svg" xmlns:xlink="http://www.w3.org/1999/xlink" 
	 viewBox="0 0 511.262 511.262" xml:space="preserve">
<g transform="translate(1 1)">
	<g>
		<g>
			<path d="M153.453,180.119c-1.707-6.827-8.533-11.947-16.213-11.947H75.8c-9.387,0-17.067,7.68-17.067,17.067v42.667
				c0,9.387,7.68,17.067,17.067,17.067h74.24c5.12,0,10.24-2.56,12.8-6.827c3.413-5.12,4.267-10.24,2.56-15.36L153.453,180.119z
				 M75.8,227.906v-42.667h61.44l12.8,42.667H75.8z"/>
			<path d="M118.467,441.239c5.12,0,8.533-3.413,8.533-8.533s-3.413-8.533-8.533-8.533s-8.533,3.413-8.533,8.533
				S113.347,441.239,118.467,441.239z"/>
			<path d="M161.133,441.239c5.12,0,8.533-3.413,8.533-8.533s-3.413-8.533-8.533-8.533s-8.533,3.413-8.533,8.533
				S156.013,441.239,161.133,441.239z"/>
			<path d="M203.8,441.239c5.12,0,8.533-3.413,8.533-8.533s-3.413-8.533-8.533-8.533c-5.12,0-8.533,3.413-8.533,8.533
				S198.68,441.239,203.8,441.239z"/>
			<path d="M510.147,262.039c0-49.447-61.398-63.225-84.48-66.503V104.55l9.387-9.764c6.827-7.68,10.24-17.067,9.387-27.307
				c-0.853-10.24-5.973-19.627-13.653-25.6c-14.507-11.947-35.84-10.24-48.64,3.413L216.724,220.352l-17.19-76.926
				c-3.413-15.36-17.067-26.453-33.28-26.453h-22.187V99.906c0-18.773-15.36-34.133-34.133-34.133S75.8,81.132,75.8,99.906v17.067
				H50.2c-18.773,0-34.133,15.36-34.133,34.133v128v17.067V398.37C5.649,406.085-1,418.488-1,432.706
				c0,23.893,18.773,42.667,42.667,42.667H280.6c23.893,0,42.667-18.773,42.667-42.667s-18.773-42.667-42.667-42.667h-3.012
				l28.612-81.067c3.413-5.973,2.56-13.653-0.853-19.627c-4.267-6.827-10.24-10.24-17.92-10.24h-29.574L408.6,122.302v72.214
				c-22.245,2.893-84.619,15.921-85.333,66.67c-0.853,6.827,1.707,31.573,53.76,83.627c1.707,1.707,3.413,2.56,5.973,2.56
				c0.853,0,1.707,0,1.707-0.853c3.413-0.853,5.12-2.56,5.973-5.973l17.067-75.947l8.896-31.134l9.024,31.134l17.067,76.8
				c0.853,2.56,2.56,5.12,5.973,5.973c0.853,0,1.707,0,2.56,0c2.56,0,4.267-0.853,5.12-1.707
				C508.44,293.612,511,268.012,510.147,262.039z M92.867,99.906c0-9.387,7.68-17.067,17.067-17.067S127,90.519,127,99.906v17.067
				H92.867V99.906z M33.133,151.106c0-9.387,7.68-17.067,17.067-17.067h25.6h68.267H165.4c8.533,0,15.36,5.973,17.067,13.653
				l29.867,131.413h-179.2V151.106z M16.067,432.706c0-14.507,11.093-25.6,25.6-25.6c14.507,0,25.6,11.093,25.6,25.6
				s-11.093,25.6-25.6,25.6C27.16,458.306,16.067,447.212,16.067,432.706z M76.003,407.106h170.261
				c-5.25,7.09-8.33,15.924-8.33,25.6s3.08,18.51,8.33,25.6H76.003c5.25-7.09,8.33-15.924,8.33-25.6S81.253,414.195,76.003,407.106z
				 M306.2,432.706c0,14.507-11.093,25.6-25.6,25.6c-14.507,0-25.6-11.093-25.6-25.6s11.093-25.6,25.6-25.6
				C295.107,407.106,306.2,418.199,306.2,432.706z M290.84,298.732c0,0,0.853,1.707,0,3.413l-30.72,86.187
				c-0.853,0.853-1.707,1.707-3.413,1.707H41.667h-8.533v-25.6h187.733c5.12,0,8.533-3.413,8.533-8.533
				c0-5.12-3.413-8.533-8.533-8.533H33.133v-17.067h136.533c5.12,0,8.533-3.413,8.533-8.533s-3.413-8.533-8.533-8.533H33.133
				v-16.213h254.293C289.133,297.026,290.84,297.879,290.84,298.732z M230.253,279.106l-6.113-25.562l-3.1-13.873L394.947,58.092
				c6.827-6.827,17.92-7.68,25.6-1.707c4.267,2.56,6.827,7.68,6.827,12.8s-1.707,10.24-5.12,13.653l-8.849,9.251
				c-1.987,0.836-3.461,2.37-4.221,4.413L234.52,279.106H230.253z M391.533,260.332l-13.653,61.44
				c-37.547-40.107-37.547-58.027-37.547-58.027c0-0.853,0-0.853,0-1.707c0-34.133,43.52-46.08,64.853-49.493L391.533,260.332z
				 M456.387,320.919l-13.653-61.44l-13.653-46.933c21.333,3.413,64.853,15.36,64.853,49.493
				C493.933,262.892,494.787,279.959,456.387,320.919z"/>
		</g>
	</g>
</g>
</svg>